<?xml version="1.0" encoding="UTF-8" standalone="no"?>
<!-- Created with Inkscape (http://www.inkscape.org/) -->

<svg
   xmlns:dc="http://purl.org/dc/elements/1.1/"
   xmlns:cc="http://creativecommons.org/ns#"
   xmlns:rdf="http://www.w3.org/1999/02/22-rdf-syntax-ns#"
   xmlns:svg="http://www.w3.org/2000/svg"
   xmlns="http://www.w3.org/2000/svg"
   xmlns:sodipodi="http://sodipodi.sourceforge.net/DTD/sodipodi-0.dtd"
   xmlns:inkscape="http://www.inkscape.org/namespaces/inkscape"
   width="100"
   height="100"
   id="svg2"
   version="1.1"
   inkscape:version="0.47 r22583"
   style="display:inline"
   sodipodi:docname="Zoom Glass.svg"
   inkscape:export-filename="/Users/cduhn/Documents/Workspace/desiccant/Resources/Images/Buttons/Zoom Glass.png"
   inkscape:export-xdpi="90"
   inkscape:export-ydpi="90">
  <defs
     id="defs4">
    <inkscape:perspective
       sodipodi:type="inkscape:persp3d"
       inkscape:vp_x="0 : 526.18109 : 1"
       inkscape:vp_y="0 : 1000 : 0"
       inkscape:vp_z="744.09448 : 526.18109 : 1"
       inkscape:persp3d-origin="372.04724 : 350.78739 : 1"
       id="perspective10" />
    <inkscape:perspective
       id="perspective2828"
       inkscape:persp3d-origin="0.5 : 0.33333333 : 1"
       inkscape:vp_z="1 : 0.5 : 1"
       inkscape:vp_y="0 : 1000 : 0"
       inkscape:vp_x="0 : 0.5 : 1"
       sodipodi:type="inkscape:persp3d" />
    <inkscape:perspective
       id="perspective2855"
       inkscape:persp3d-origin="0.5 : 0.33333333 : 1"
       inkscape:vp_z="1 : 0.5 : 1"
       inkscape:vp_y="0 : 1000 : 0"
       inkscape:vp_x="0 : 0.5 : 1"
       sodipodi:type="inkscape:persp3d" />
    <inkscape:perspective
       id="perspective2877"
       inkscape:persp3d-origin="0.5 : 0.33333333 : 1"
       inkscape:vp_z="1 : 0.5 : 1"
       inkscape:vp_y="0 : 1000 : 0"
       inkscape:vp_x="0 : 0.5 : 1"
       sodipodi:type="inkscape:persp3d" />
    <inkscape:perspective
       id="perspective2910"
       inkscape:persp3d-origin="0.5 : 0.33333333 : 1"
       inkscape:vp_z="1 : 0.5 : 1"
       inkscape:vp_y="0 : 1000 : 0"
       inkscape:vp_x="0 : 0.5 : 1"
       sodipodi:type="inkscape:persp3d" />
  </defs>
  <sodipodi:namedview
     id="base"
     pagecolor="#ffffff"
     bordercolor="#666666"
     borderopacity="1.0"
     inkscape:pageopacity="0"
     inkscape:pageshadow="2"
     inkscape:zoom="5.6568542"
     inkscape:cx="48.964881"
     inkscape:cy="44.370672"
     inkscape:document-units="px"
     inkscape:current-layer="layer3"
     showgrid="false"
     inkscape:showpageshadow="true"
     showborder="true"
     inkscape:window-width="1010"
     inkscape:window-height="920"
     inkscape:window-x="594"
     inkscape:window-y="0"
     inkscape:window-maximized="0" />
  <metadata
     id="metadata7">
    <rdf:RDF>
      <cc:Work
         rdf:about="">
        <dc:format>image/svg+xml</dc:format>
        <dc:type
           rdf:resource="http://purl.org/dc/dcmitype/StillImage" />
        <dc:title></dc:title>
      </cc:Work>
    </rdf:RDF>
  </metadata>
  <g
     inkscape:groupmode="layer"
     id="layer4"
     inkscape:label="Layer#1"
     style="display:inline">
    <rect
       style="fill:#000000;fill-opacity:1;stroke:none;display:inline"
       id="rect2843-0"
       width="8.12251"
       height="43.73457"
       x="67.144958"
       y="20.191479"
       transform="matrix(0.73356013,0.67962455,-0.70713233,0.70708124,0,0)" />
    <rect
       style="fill:#000000;fill-opacity:1;stroke:none;display:inline"
       id="rect2845-9-2"
       width="8.1271238"
       height="34.535343"
       x="36.155468"
       y="-76.407631"
       transform="matrix(0,1,-1,0,0,0)" />
    <rect
       style="fill:#000000;fill-opacity:1;stroke:none;display:inline"
       id="rect2845-9-3-4"
       width="8.8342304"
       height="34.358566"
       x="-63.557076"
       y="-57.398312"
       transform="scale(-1,-1)" />
    <path
       style="fill:#000000;fill-opacity:1;stroke:none"
       d="m 59.124564,4.2341944 c -19.721439,0 -35.688649,16.1168656 -35.688649,35.9848336 0,19.867968 15.96721,35.984835 35.688649,35.984835 19.721438,0 35.719441,-16.116867 35.719441,-35.984835 0,-19.867968 -15.998003,-35.9848336 -35.719441,-35.9848336 z m 0,8.9651866 c 14.815129,0 26.851166,12.094442 26.851166,27.019647 0,14.925205 -12.036037,27.019648 -26.851166,27.019648 -14.81513,0 -26.820374,-12.094443 -26.820374,-27.019648 0,-14.925205 12.005244,-27.019647 26.820374,-27.019647 z"
       id="path2947" />
  </g>
  <g
     inkscape:groupmode="layer"
     id="layer3"
     inkscape:label="Layer"
     transform="translate(0,12)"
     style="display:inline">
    <path
       style="fill:#ffffff;fill-opacity:1;stroke:none"
       d="m 59.13996,-5.9215964 c -18.859016,0 -34.15625,15.297234 -34.15625,34.1562504 0,18.859016 15.297234,34.125 34.15625,34.125 18.859016,0 34.15625,-15.265984 34.15625,-34.125 0,-18.8590164 -15.297234,-34.1562504 -34.15625,-34.1562504 z m 0,5.34375 c 15.912295,0 28.8125,12.9002054 28.8125,28.8125004 0,15.912295 -12.900205,28.8125 -28.8125,28.8125 -15.912295,0 -28.8125,-12.900205 -28.8125,-28.8125 0,-15.912295 12.900205,-28.8125004 28.8125,-28.8125004 z"
       id="path2818" />
    <rect
       style="fill:#ffffff;fill-opacity:1;stroke:none"
       id="rect2843"
       width="5.3143611"
       height="39.344074"
       x="60.010429"
       y="11.185766"
       transform="matrix(0.70710678,0.70710678,-0.70710678,0.70710678,0,0)" />
    <rect
       style="fill:#ffffff;fill-opacity:1;stroke:none;display:inline"
       id="rect2845-9"
       width="5.4262815"
       height="31.612902"
       x="25.505888"
       y="-74.946411"
       transform="matrix(0,1,-1,0,0,0)" />
    <rect
       style="fill:#ffffff;fill-opacity:1;stroke:none;display:inline"
       id="rect2845-9-3"
       width="5.4262815"
       height="31.612902"
       x="-61.853104"
       y="-44.025478"
       transform="scale(-1,-1)" />
  </g>
</svg>
